<?xml version="1.0" standalone="no"?>
<!DOCTYPE svg PUBLIC "-//W3C//DTD SVG 20010904//EN"
 "http://www.w3.org/TR/2001/REC-SVG-20010904/DTD/svg10.dtd">
<svg version="1.0" xmlns="http://www.w3.org/2000/svg"
 width="480.000000pt" height="480.000000pt" viewBox="0 0 480.000000 480.000000"
 preserveAspectRatio="xMidYMid meet">
<metadata>
Created by potrace 1.11, written by Peter Selinger 2001-2013
</metadata>
<g transform="translate(0.000000,480.000000) scale(0.100000,-0.100000)"
fill="#000000" stroke="none">
<path d="M2130 4504 c-14 -2 -65 -9 -115 -15 -49 -6 -142 -24 -205 -39 -725
-177 -1307 -732 -1519 -1450 -96 -324 -109 -702 -36 -1055 33 -160 116 -386
196 -535 268 -496 729 -873 1259 -1029 227 -66 307 -76 610 -76 261 0 281 2
402 28 343 73 605 191 867 390 448 340 741 845 816 1411 21 158 16 470 -10
611 -55 301 -160 571 -313 805 -89 137 -151 213 -270 333 -317 322 -702 520
-1167 603 -76 14 -462 27 -515 18z m98 -56 c19 -19 14 -30 -10 -28 -37 3 -45
-2 -14 -9 42 -9 55 -34 32 -60 -23 -25 -59 -27 -81 -5 -22 22 -5 40 23 25 14
-7 23 -8 27 -1 3 5 -2 10 -12 10 -11 0 -28 6 -38 14 -17 12 -18 18 -7 40 8 19
19 26 40 26 15 0 33 -5 40 -12z m72 -49 c0 -52 -2 -60 -17 -57 -14 2 -19 15
-21 61 -3 52 -1 57 18 57 18 0 20 -6 20 -61z m88 28 l22 -32 0 33 c0 26 4 33
18 30 24 -4 30 -99 8 -117 -13 -11 -20 -7 -46 20 l-30 33 0 -28 c0 -20 -4 -27
-16 -24 -8 2 -15 6 -15 11 1 4 1 30 1 57 0 41 3 50 18 50 9 0 27 -15 40 -33z
m180 11 c20 -20 14 -31 -14 -25 -32 6 -60 -19 -43 -39 6 -8 19 -13 28 -13 13
1 13 2 -1 6 -31 8 -21 33 12 33 27 0 30 -3 30 -30 0 -24 -6 -33 -27 -41 -34
-13 -76 15 -81 54 -6 48 63 88 96 55z m110 -21 c14 -16 36 -106 29 -114 -4 -3
-21 1 -39 10 -18 8 -45 13 -60 10 -16 -3 -28 -3 -28 1 0 11 72 106 80 106 4 0
12 -6 18 -13z m150 -29 c28 -24 -3 -93 -40 -87 -7 1 -21 -1 -31 -6 -28 -12
-31 0 -18 61 13 55 13 55 44 48 18 -3 38 -11 45 -16z m-900 -31 c4 -20 -25
-34 -40 -19 -15 15 -1 44 19 40 10 -2 19 -11 21 -21z m1035 -19 c17 -23 19
-31 9 -53 -6 -14 -23 -31 -37 -37 -22 -10 -30 -8 -53 9 -35 26 -40 65 -12 93
28 28 67 23 93 -12z m-1315 -23 c7 -14 12 -37 12 -50 0 -29 -32 -65 -58 -65
-26 0 -60 40 -68 78 -9 46 21 43 41 -4 21 -50 41 -39 37 20 -3 53 17 64 36 21z
m1422 0 c34 -17 40 -54 15 -75 -9 -7 -14 -19 -11 -26 3 -7 1 -16 -4 -19 -13
-8 -40 6 -40 21 0 17 -12 18 -27 3 -21 -21 -25 10 -8 61 18 54 29 59 75 35z
m-1541 -76 c20 -50 20 -69 0 -69 -14 0 -52 88 -45 106 10 26 23 15 45 -37z
m1662 25 c48 -25 29 -47 -26 -30 -15 5 -14 3 3 -5 28 -15 23 -35 -9 -32 l-24
3 25 -19 c18 -15 22 -23 14 -31 -8 -8 -21 -5 -48 11 -20 12 -36 24 -34 28 2 3
12 25 22 49 22 46 32 50 77 26z m-556 -24 c548 -94 1034 -439 1312 -932 29
-51 50 -94 48 -96 -2 -2 -14 3 -27 12 -28 20 -61 20 -98 1 -35 -18 -36 -16
-10 32 11 21 20 48 20 60 0 31 -39 72 -76 79 -25 5 -38 0 -66 -25 -20 -17 -38
-31 -41 -31 -3 0 -3 22 0 49 5 46 3 52 -25 80 -36 37 -85 42 -102 12 -15 -29
-8 -122 10 -132 8 -4 42 -20 75 -36 34 -16 85 -52 118 -85 223 -220 157 -589
-130 -726 -75 -36 -82 -37 -188 -37 -106 0 -113 1 -188 37 -198 95 -306 315
-253 515 18 67 52 135 92 181 29 35 31 41 24 89 -8 62 -8 62 -51 69 -74 12
-113 -62 -70 -133 22 -35 18 -47 -11 -32 -32 17 -48 4 -48 -41 0 -27 -4 -40
-12 -39 -42 5 -50 -1 -45 -33 2 -18 -1 -44 -7 -57 -18 -40 -59 -81 -81 -81
-11 0 -31 -7 -43 -16 -18 -12 -26 -13 -37 -4 -22 18 -19 26 15 40 30 13 66 57
62 77 -1 6 2 14 8 18 20 13 10 43 -17 51 -16 4 -32 6 -37 5 -4 -1 -19 5 -32
14 -21 14 -28 14 -59 1 -19 -8 -35 -21 -35 -28 -1 -15 -34 -58 -45 -58 -4 0
-5 14 -1 30 4 22 2 30 -9 30 -9 0 -12 -6 -9 -15 4 -9 0 -15 -10 -15 -10 0 -16
9 -16 24 0 16 -15 35 -54 64 -46 34 -60 39 -83 33 -18 -5 -29 -15 -31 -29 -2
-12 -7 -22 -11 -22 -10 0 -2 -50 10 -65 5 -6 -12 -9 -48 -7 l-55 4 6 31 c6 29
51 82 91 105 20 11 20 11 0 11 -34 0 -94 -64 -101 -108 l-6 -39 -162 -4 c-150
-3 -165 -6 -219 -31 -32 -15 -81 -45 -109 -67 -52 -41 -84 -54 -55 -22 24 27
30 69 17 117 -11 40 -16 45 -41 45 -26 0 -29 -3 -29 -34 0 -23 7 -38 22 -48
26 -18 20 -52 -18 -97 -37 -45 -73 -42 -39 3 19 25 19 55 0 62 -8 4 -15 15
-15 25 0 10 -4 19 -9 19 -5 0 -8 10 -5 23 11 66 11 77 3 83 -16 9 -10 26 7 20
9 -3 28 -8 42 -11 17 -3 12 1 -12 10 -21 8 -42 13 -46 10 -5 -3 -10 -2 -12 2
-1 5 -20 21 -41 37 -42 31 -95 38 -121 17 -27 -22 -18 -28 33 -23 31 3 51 0
56 -8 5 -8 -1 -11 -21 -9 -63 5 -80 -2 -124 -46 -33 -32 -53 -44 -75 -45 -63
-1 -106 -68 -78 -123 12 -24 12 -30 -2 -49 -16 -23 -20 -85 -7 -104 12 -19 70
-44 102 -44 20 0 30 -5 30 -15 0 -8 8 -16 18 -16 16 -1 16 -2 0 -6 -32 -8 -21
-47 22 -79 35 -26 39 -33 34 -59 -4 -16 -13 -43 -21 -59 -29 -57 -53 -144 -52
-193 2 -61 -23 -150 -64 -226 -28 -54 -30 -62 -21 -107 13 -61 3 -90 -31 -90
-30 0 -29 -1 -10 38 23 45 10 108 -25 129 -15 8 -34 28 -43 42 -10 17 -32 31
-64 41 -26 8 -50 14 -53 13 -3 -1 -38 -4 -78 -7 -40 -3 -81 -10 -90 -15 -16
-10 -16 -10 1 -11 9 0 17 -3 17 -7 0 -4 -18 -44 -41 -90 -59 -118 -45 -132 21
-21 5 10 14 26 18 35 16 33 104 83 145 83 48 0 71 -12 124 -65 47 -47 67 -87
58 -116 -8 -26 -25 -14 -25 16 0 19 -7 26 -27 31 -16 4 -34 16 -41 26 -11 15
-17 16 -34 7 -14 -8 -23 -8 -31 0 -8 8 -16 6 -29 -6 -17 -15 -19 -15 -38 2
-20 18 -21 18 -27 -3 -3 -12 -15 -25 -27 -28 -12 -3 -29 -17 -38 -32 -10 -15
-23 -36 -30 -47 -7 -11 -17 -23 -23 -28 -6 -4 6 -22 29 -44 41 -37 65 -100 42
-109 -6 -2 -38 5 -70 16 -74 25 -74 25 -47 -4 13 -14 20 -29 17 -35 -13 -20
35 -69 80 -81 53 -15 48 -26 -34 -73 -48 -26 -53 -33 -49 -56 10 -48 48 -121
63 -121 8 0 19 -11 24 -25 8 -21 14 -24 34 -19 17 4 27 1 34 -12 9 -15 12 -16
26 -5 14 12 19 11 36 -4 20 -18 21 -18 41 3 11 12 30 22 43 22 18 0 27 8 36
33 10 25 14 28 17 14 20 -80 -161 -187 -244 -143 -47 24 -113 95 -113 120 0
32 -35 102 -44 87 -4 -6 -4 -25 -1 -42 13 -58 -17 -26 -72 77 -73 137 -89 181
-75 204 9 15 8 17 -7 13 -21 -5 -35 28 -80 189 -62 224 -78 570 -37 797 98
535 405 985 871 1279 72 45 265 135 367 171 95 33 288 76 408 91 115 14 377 4
515 -20z m-1266 -49 c17 -11 17 -67 0 -87 -17 -20 -52 -17 -77 6 -31 29 -28
41 18 72 29 20 40 21 59 9z m1971 -31 c0 -4 9 -10 20 -13 53 -14 23 -77 -37
-77 -18 0 -33 1 -33 3 0 1 -4 17 -9 35 -8 27 -7 36 9 52 18 18 50 18 50 0z
m-2160 -71 c0 -7 -8 -18 -17 -26 -16 -12 -15 -13 10 -7 31 7 34 -1 10 -28 -9
-10 -11 -18 -5 -18 6 0 14 5 17 10 8 14 35 13 35 -1 0 -12 -20 -31 -52 -49
-14 -8 -23 -2 -47 34 -17 25 -31 48 -31 53 0 10 51 42 68 43 6 0 12 -5 12 -11z
m2360 -40 c0 -17 -54 -89 -67 -89 -26 0 -23 22 7 60 30 38 60 53 60 29z m45
-30 c4 -6 -2 -21 -14 -33 -12 -12 -21 -30 -21 -39 0 -26 35 -21 54 8 19 29 34
32 43 9 8 -21 -45 -74 -74 -74 -27 0 -63 33 -63 57 0 22 42 83 57 83 6 0 15
-5 18 -11z m-2487 -11 c7 -7 12 -20 12 -30 0 -10 7 -18 16 -18 26 0 10 -25
-19 -28 -17 -2 -24 -8 -21 -17 3 -7 0 -16 -7 -21 -13 -8 -79 61 -79 82 0 16
41 43 66 43 11 1 25 -4 32 -11z m-93 -93 c14 -13 25 -33 25 -45 0 -28 -35 -60
-65 -60 -30 0 -65 32 -65 60 0 25 42 70 65 70 9 0 27 -11 40 -25z m-101 -97
c12 -16 13 -26 4 -42 -6 -11 -11 -29 -12 -41 -1 -11 -6 -20 -12 -20 -12 0 -84
61 -84 72 0 3 10 17 22 30 27 29 62 30 82 1z m2894 -71 c4 -20 -25 -34 -40
-19 -15 15 -1 44 19 40 10 -2 19 -11 21 -21z m-2980 -37 c25 -6 42 -17 42 -25
0 -8 -6 -15 -13 -15 -19 0 -49 -34 -45 -51 2 -7 -4 -14 -13 -16 -11 -3 -23 12
-38 48 -24 55 -22 83 6 75 10 -3 37 -10 61 -16z m-108 -79 c0 -5 -7 -14 -15
-21 -29 -24 -12 -65 23 -52 20 7 14 21 -8 15 -25 -7 -26 8 -2 37 17 22 18 22
41 3 50 -41 -13 -113 -73 -85 -33 15 -43 55 -22 87 16 24 56 35 56 16z m3295
-67 c19 -8 44 -54 38 -71 -8 -21 -23 -15 -34 13 -5 15 -12 24 -15 22 -2 -3 1
-17 7 -31 14 -32 -3 -60 -34 -55 -27 4 -60 49 -51 71 9 23 34 22 34 -2 0 -11
4 -23 10 -26 6 -4 7 6 4 24 -4 19 -2 37 6 46 14 17 13 17 35 9z m-3350 -51
c54 -33 55 -54 2 -66 -37 -9 -38 -10 -17 -24 16 -11 19 -18 11 -26 -8 -8 -24
-5 -56 13 -59 32 -60 57 -3 67 38 6 40 7 20 16 -22 10 -28 27 -15 40 9 10 7
10 58 -20z m3425 -66 c0 -7 -20 -23 -45 -37 -34 -18 -47 -22 -56 -13 -9 9 0
19 36 42 47 30 65 32 65 8z m-3493 -62 c45 -27 52 -39 30 -48 -18 -7 -110 51
-102 63 10 15 25 12 72 -15z m3529 11 c3 -8 -2 -28 -11 -45 -15 -31 -9 -41 12
-20 13 13 43 5 43 -10 0 -14 -100 -62 -112 -55 -10 6 -7 33 7 68 7 16 5 17
-12 7 -16 -8 -24 -7 -32 3 -10 12 -4 19 31 40 49 29 66 32 74 12z m-3596 -60
c0 -8 -4 -18 -10 -21 -5 -3 -10 -12 -10 -18 0 -7 9 -1 18 11 26 34 66 27 70
-11 4 -30 -21 -67 -44 -67 -24 0 -25 19 -2 39 12 12 17 21 11 21 -5 0 -18 -9
-28 -20 -22 -24 -29 -25 -50 -4 -16 16 -13 46 7 72 14 17 38 15 38 -2z m3670
-93 c11 -15 19 -33 18 -42 -5 -25 -27 -24 -38 3 -6 16 -17 26 -29 26 -21 0
-36 -26 -21 -35 6 -4 10 1 10 9 0 22 17 20 30 -3 16 -30 12 -40 -15 -47 -54
-13 -86 55 -45 96 28 28 64 25 90 -7z m-2650 -73 c0 -5 -4 -10 -10 -10 -5 0
-10 5 -10 10 0 6 5 10 10 10 6 0 10 -4 10 -10z m2490 -27 c36 -80 92 -257 117
-375 26 -126 28 -146 27 -373 0 -222 -2 -249 -27 -364 -44 -204 -116 -394
-209 -555 -90 -156 -298 -417 -283 -356 7 28 16 51 35 92 7 15 10 41 6 62 -3
20 -9 51 -12 70 -4 22 -21 48 -47 74 -49 47 -76 57 -102 39 -17 -13 -17 -15 5
-55 12 -22 31 -44 42 -49 25 -11 73 -113 53 -113 -8 0 -22 11 -31 26 -20 30
-70 58 -90 50 -8 -3 -14 1 -14 9 0 7 -7 21 -16 30 -14 13 -15 21 -5 41 22 50
12 68 -51 88 -26 8 -22 -9 5 -23 18 -10 22 -19 19 -42 -4 -29 -22 -41 -22 -15
0 27 -33 41 -97 43 -54 1 -68 5 -89 26 -26 27 -18 45 13 29 33 -17 88 -22 111
-9 l22 13 -30 34 c-30 35 -30 35 -24 8 6 -26 4 -28 -29 -28 -29 0 -37 5 -47
29 -6 16 -18 32 -26 35 -8 3 -22 20 -30 38 l-15 33 6 -47 c4 -32 3 -48 -5 -48
-6 0 -22 -11 -36 -25 l-25 -25 -9 26 c-14 37 -13 43 20 81 17 18 30 39 30 44
0 6 7 8 16 5 21 -8 54 20 54 46 0 11 -7 18 -20 18 -19 0 -20 4 -14 53 4 28 16
72 28 97 l20 45 4 -38 c3 -32 6 -36 18 -26 8 6 14 25 14 41 0 36 40 78 75 78
27 0 71 -23 92 -49 16 -18 28 -8 16 13 -11 19 -80 56 -106 56 -10 0 -31 -7
-47 -15 l-30 -16 0 66 c0 51 -6 77 -25 116 -37 72 -86 209 -79 220 3 5 11 9
18 9 7 0 25 11 40 25 35 32 46 32 46 -2 0 -16 9 -43 20 -60 16 -27 26 -33 55
-33 41 0 73 27 82 70 8 40 19 38 43 -10 22 -43 46 -61 82 -59 22 1 22 2 -4 12
-16 6 -28 14 -28 19 0 13 37 28 69 28 30 0 31 1 31 47 l0 48 31 -38 c17 -20
35 -37 41 -37 7 0 6 5 -1 14 -13 16 -9 20 34 31 17 4 24 10 17 12 -19 7 -3 23
24 23 29 0 33 33 8 68 -20 29 -10 41 14 19 24 -22 42 -22 43 1 0 13 3 12 11
-5 14 -29 47 -30 77 -2 19 18 22 29 18 61 -3 22 -12 47 -21 57 -24 27 -20 31
29 31 59 0 85 25 85 80 0 45 -23 75 -65 86 -35 9 -31 21 12 39 55 23 73 43 73
82 0 30 -5 36 -42 53 -24 11 -51 20 -60 20 -25 0 -22 17 7 52 14 16 25 36 25
44 0 23 16 16 30 -13z m210 -29 c12 -12 8 -20 -30 -59 -24 -25 -48 -45 -52
-45 -4 0 -8 16 -8 35 0 22 -7 41 -21 54 -12 11 -19 24 -15 29 8 13 108 2 126
-14z m-2855 -84 c17 -33 19 -44 6 -36 -10 6 -33 66 -26 66 3 0 11 -13 20 -30z
m1553 -7 c2 -8 -5 -13 -17 -13 -12 0 -21 6 -21 16 0 18 31 15 38 -3z m-2508
-22 c0 -22 -21 -33 -40 -21 -18 11 -4 40 20 40 13 0 20 -7 20 -19z m2231 -3
c28 -34 23 -42 -11 -18 -30 22 -39 40 -19 40 6 0 19 -10 30 -22z m1623 6 c14
-37 6 -74 -18 -85 -27 -13 -66 2 -66 25 0 8 -9 16 -21 19 -30 8 -19 28 22 43
48 17 76 17 83 -2z m-2854 -73 c0 -9 -57 -30 -64 -23 -8 7 -8 47 0 54 6 7 64
-21 64 -31z m1398 -26 c5 -4 -21 -55 -28 -55 -7 0 -50 47 -50 54 0 13 64 13
78 1z m1478 -30 c29 -29 26 -58 -8 -87 -26 -23 -40 -23 -72 3 -49 38 -23 104
42 108 7 1 24 -10 38 -24z m-2913 -5 c-5 -19 -23 -39 -23 -25 0 9 20 45 24 45
2 0 2 -9 -1 -20z m267 14 c0 -15 -69 -73 -72 -62 -8 22 4 57 21 61 26 7 51 7
51 1z m1226 -29 c16 -8 38 -15 49 -15 17 0 16 -3 -8 -19 -15 -10 -35 -28 -43
-40 -20 -28 -26 -27 -53 10 -21 28 -22 32 -7 55 19 28 24 29 62 9z m-1631 -45
c-5 -7 -12 -2 -21 15 -20 38 -17 43 7 18 12 -12 18 -26 14 -33z m-858 -66 c31
-48 -15 -98 -80 -87 -28 4 -37 10 -37 25 0 17 5 19 40 13 32 -5 41 -4 46 10 8
20 -11 35 -43 35 -25 0 -37 15 -30 35 8 20 85 -2 104 -31z m3947 0 c22 -56 -9
-102 -59 -90 -13 3 -27 2 -30 -4 -3 -5 -10 -10 -16 -10 -13 0 -11 34 3 48 9 9
8 15 -8 26 -24 18 -15 27 33 36 60 12 70 11 77 -6z m-2904 -64 c0 -5 -7 -10
-16 -10 -8 0 -12 5 -9 10 3 6 10 10 16 10 5 0 9 -4 9 -10z m1565 -20 c-3 -5
-10 -10 -16 -10 -5 0 -9 5 -9 10 0 6 7 10 16 10 8 0 12 -4 9 -10z m-2637 -26
c41 -11 26 -34 -22 -34 -54 0 -76 8 -76 26 0 15 55 19 98 8z m2057 -24 c3 -11
10 -20 15 -20 17 0 177 -166 185 -191 4 -13 23 -41 43 -61 l36 -38 -142 0
c-84 0 -142 -4 -142 -10 0 -5 57 -9 144 -8 l144 2 58 -50 c33 -28 74 -60 92
-73 54 -38 65 -70 57 -175 -5 -59 -3 -106 4 -134 l12 -42 -70 -98 c-39 -53
-88 -111 -109 -128 -76 -63 -359 -174 -443 -174 -61 0 -203 42 -306 90 -133
62 -201 143 -259 309 -32 93 -35 113 -36 212 0 108 6 138 43 235 19 49 21 51
89 73 81 26 120 55 144 108 25 57 47 66 173 74 96 6 119 11 158 33 25 15 55
40 67 56 26 35 34 37 43 10z m1933 -27 c2 -34 0 -43 -12 -43 -11 0 -16 10 -17
28 -1 25 -1 26 -7 4 -4 -13 -11 -23 -17 -23 -5 0 -13 10 -17 23 -5 20 -6 18
-7 -9 -1 -21 -6 -33 -15 -33 -17 0 -26 22 -26 60 0 32 14 39 75 37 40 -2 40
-2 43 -44z m-1234 -80 c-9 -38 -12 -40 -29 -17 -12 17 -12 20 2 32 26 19 34
14 27 -15z m-2779 -48 c14 -13 25 -28 25 -34 0 -11 -57 -61 -70 -61 -31 0 -49
72 -27 108 13 20 46 14 72 -13z m3989 -40 c14 -15 14 -47 0 -92 -9 -33 -94 7
-94 44 0 17 48 63 66 63 7 0 19 -7 28 -15z m-3944 -201 c0 -30 -2 -32 -51 -38
-29 -4 -55 -3 -60 1 -4 4 -9 26 -11 48 -2 30 1 40 12 40 9 0 17 -12 19 -30 4
-29 4 -29 10 -6 9 33 31 39 32 9 1 -20 2 -20 6 -3 10 48 14 51 29 31 8 -11 14
-34 14 -52z m3965 -34 c0 -12 -12 -15 -53 -14 -58 2 -67 6 -59 26 7 20 112 9
112 -12z m-3960 -30 c4 -6 1 -18 -6 -26 -11 -13 -10 -18 4 -25 29 -17 20 -38
-20 -44 -21 -3 -46 -8 -56 -10 -33 -6 -52 70 -22 95 8 7 26 10 40 8 14 -3 28
-1 31 3 7 12 21 11 29 -1z m3933 -6 c14 -4 22 -13 20 -23 -3 -12 -13 -15 -40
-13 -20 2 -39 -2 -43 -8 -11 -18 15 -40 47 -40 23 0 29 -4 26 -17 -6 -26 -77
-20 -100 8 -24 28 -23 48 4 76 22 23 44 28 86 17z m-3918 -134 c28 -28 25 -64
-6 -89 -34 -27 -50 -26 -79 4 -30 29 -31 45 -4 79 25 31 61 34 89 6z m743
-157 c-14 -32 -37 -69 -52 -82 l-26 -23 24 6 c31 7 51 -9 51 -41 0 -51 -48
-88 -64 -48 -3 8 -10 15 -15 15 -5 0 6 -35 24 -77 38 -91 50 -133 35 -133 -12
0 -46 66 -70 135 -10 28 -23 49 -30 47 -21 -5 -50 9 -50 24 0 8 -7 14 -15 14
-8 0 -15 4 -15 9 0 25 67 18 73 -8 3 -9 5 -2 6 16 0 17 4 33 9 35 4 2 27 32
51 68 80 118 105 134 64 43z m182 -63 c4 -19 9 -47 12 -62 3 -17 1 -28 -6 -28
-6 0 -11 3 -11 8 0 30 -23 139 -31 147 -5 5 -9 18 -8 30 1 26 35 -46 44 -95z
m312 100 c24 -9 33 -21 47 -68 10 -31 27 -73 37 -93 10 -20 15 -39 12 -43 -12
-11 -74 -6 -102 9 -38 19 -81 94 -81 139 0 32 14 49 56 66 1 0 14 -5 31 -10z
m-1210 -35 c19 -19 32 -39 29 -44 -7 -11 -105 -35 -112 -28 -3 2 -8 22 -11 42
-5 30 -2 41 12 51 29 21 45 17 82 -21z m3774 -99 c-16 -19 -41 -10 -41 14 0
24 21 31 39 14 11 -10 12 -16 2 -28z m-3730 27 c0 -5 2 -20 3 -35 1 -15 9 -35
19 -46 9 -10 17 -22 17 -25 0 -13 -106 -7 -126 7 -18 14 -17 16 26 60 42 44
59 55 61 39z m541 -35 c-19 -19 -24 -21 -32 -8 -10 17 4 30 35 30 19 0 18 -1
-3 -22z m2178 -48 c0 -5 -2 -10 -4 -10 -3 0 -8 5 -11 10 -3 6 -1 10 4 10 6 0
11 -4 11 -10z m-1862 -42 c14 -13 22 -18 18 -11 -3 6 -2 14 3 17 5 4 12 -2 16
-13 3 -10 17 -31 32 -47 23 -25 24 -31 14 -59 -21 -59 -14 -101 23 -142 27
-31 33 -44 29 -70 -3 -18 2 -45 11 -63 16 -33 13 -115 -5 -126 -5 -3 -9 -10
-9 -16 0 -7 4 -7 13 1 21 17 56 -52 40 -78 -9 -14 -9 -28 -2 -53 6 -18 10 -54
9 -81 0 -28 5 -56 15 -69 8 -12 15 -32 15 -44 0 -25 -27 -94 -37 -94 -13 0
-181 95 -250 142 -90 60 -231 178 -299 249 -78 82 -175 202 -168 208 3 3 18
-9 33 -28 28 -34 29 -34 114 -35 73 -1 89 2 109 20 13 11 35 25 50 32 32 13
61 74 55 115 -4 27 -4 27 59 27 35 0 66 5 69 10 3 6 14 10 25 10 34 0 80 108
60 140 -8 12 -10 12 -14 0 -3 -8 -10 -27 -15 -42 -13 -34 -84 -83 -107 -74
-15 6 -14 10 8 34 35 37 50 68 48 100 -5 69 0 74 38 40z m-810 -14 c41 -28 23
-96 -29 -109 -45 -11 -104 66 -63 82 10 3 26 15 36 25 22 22 27 22 56 2z
m1171 -3 c18 -12 6 -42 -14 -35 -8 3 -15 15 -15 25 0 21 8 23 29 10z m1404
-115 c13 -39 14 -46 1 -57 -19 -16 -22 -12 -24 41 -3 76 1 80 23 16z m1007 35
c0 -6 -10 -17 -22 -25 -12 -9 -18 -19 -14 -23 5 -5 15 2 23 15 19 28 49 28 63
1 9 -16 8 -26 -5 -45 -17 -26 -42 -41 -52 -30 -3 3 1 14 10 24 26 28 20 38 -7
13 -13 -13 -32 -21 -43 -19 -25 4 -30 54 -7 79 18 20 54 26 54 10z m-2626
-138 c21 -42 6 -43 -28 -2 -29 34 -33 73 -13 116 12 26 12 26 18 -27 3 -30 13
-70 23 -87z m-900 92 c0 -11 -4 -31 -9 -45 -7 -22 -6 -23 8 -11 17 14 47 9 47
-8 0 -9 -85 -61 -100 -61 -17 0 -19 33 -4 62 17 33 20 33 -31 12 -10 -4 -15 0
-15 12 0 21 66 65 90 61 8 -1 15 -11 14 -22z m1384 -39 c27 -13 83 -34 125
-47 77 -22 97 -41 55 -53 -13 -3 -41 -30 -63 -60 -30 -41 -48 -56 -73 -61 -18
-3 -66 -23 -106 -44 l-74 -38 -6 35 c-3 19 -1 43 4 53 6 10 10 40 10 67 0 39
8 62 37 111 20 33 38 61 40 61 2 0 25 -11 51 -24z m701 -47 c22 -35 31 -63 31
-92 0 -23 4 -57 10 -76 5 -19 7 -37 5 -42 -3 -4 -33 2 -66 13 -47 16 -63 26
-70 47 -15 38 -57 79 -96 92 -21 7 -33 17 -33 29 0 14 20 25 88 48 48 16 90
30 93 30 3 1 20 -21 38 -49z m1401 16 c37 -23 54 -55 29 -55 -15 0 -99 50 -99
59 0 10 11 21 22 21 5 0 26 -11 48 -25z m-3412 -43 c4 -13 -88 -73 -100 -66
-18 11 -6 30 35 56 43 28 58 31 65 10z m3379 -9 c24 -16 42 -34 41 -42 -2 -8
-21 -19 -43 -26 -36 -10 -38 -12 -17 -19 25 -8 30 -36 7 -36 -20 0 -95 47 -95
60 0 13 34 30 62 30 l23 0 -24 19 c-13 10 -21 23 -17 30 10 15 13 15 63 -16z
m-1611 -9 c-3 -7 1 -38 9 -69 8 -31 15 -63 15 -72 0 -9 -22 -48 -49 -87 -26
-39 -56 -86 -65 -104 -15 -29 -21 -33 -52 -30 -35 3 -36 5 -67 88 -31 84 -32
87 -23 188 7 86 11 102 24 97 40 -15 128 -17 162 -3 38 17 54 14 46 -8z
m-1724 -54 c11 -16 16 -33 12 -43 -9 -23 -28 -16 -32 11 -2 12 -8 22 -13 22
-11 0 -11 -11 0 -29 12 -19 -4 -51 -26 -51 -25 0 -53 30 -53 57 0 29 13 29 34
1 15 -23 16 -23 6 6 -20 56 35 76 72 26z m3271 -72 c9 -11 17 -29 17 -39 0
-23 -34 -59 -55 -59 -19 0 -19 14 0 30 22 18 15 55 -9 55 -11 0 -22 -7 -24
-15 -4 -13 -3 -13 10 -2 22 18 32 -1 16 -28 -15 -24 -31 -25 -52 -4 -22 22
-20 41 9 70 29 29 58 26 88 -8z m-891 -60 c12 -10 14 -19 7 -35 -15 -39 -39
-21 -39 28 0 22 10 24 32 7z m240 -28 c-5 -37 -15 -44 -42 -30 -23 12 -27 40
-6 40 7 0 19 7 26 15 18 21 27 11 22 -25z m553 -17 c33 -73 25 -82 -53 -63
-61 16 -71 29 -34 45 12 5 25 19 28 30 6 20 23 45 30 45 2 0 16 -26 29 -57z
m-812 -43 c3 -11 2 -20 -3 -20 -4 0 -10 -10 -13 -21 -4 -17 -3 -19 6 -10 8 8
19 3 44 -21 25 -24 41 -32 66 -30 28 2 35 -3 52 -35 24 -46 74 -67 116 -49 30
13 73 61 84 94 7 24 7 24 28 4 31 -28 69 -34 95 -16 12 8 22 11 22 7 0 -11
-129 -113 -223 -176 -77 -51 -299 -167 -322 -167 -17 0 -25 39 -30 140 -2 45
-6 84 -9 88 -3 3 0 12 8 21 25 29 47 110 36 131 -8 15 -7 28 5 50 18 35 31 38
38 10z m763 -82 c4 -5 -7 -24 -24 -40 -22 -22 -35 -28 -51 -23 -31 10 -44 40
-29 68 7 12 11 26 10 31 -2 5 -1 15 3 23 4 11 14 8 45 -17 22 -17 43 -36 46
-42z m-3018 19 c4 -20 -25 -34 -40 -19 -15 15 -1 44 19 40 10 -2 19 -11 21
-21z m1392 -42 c0 -17 -27 -32 -37 -21 -4 3 2 13 13 21 24 18 24 18 24 0z m96
-15 c11 0 14 -24 14 -123 0 -200 -11 -338 -26 -335 -10 2 -14 50 -18 208 -3
113 -8 218 -12 234 -6 25 -4 28 10 23 10 -4 24 -7 32 -7z m1420 -25 c40 -61
-43 -128 -96 -75 -41 41 -13 100 46 100 25 0 38 -7 50 -25z m-2614 -72 c10 -9
18 -28 18 -42 -1 -29 -45 -85 -60 -76 -15 9 -12 31 5 45 8 7 15 21 15 31 0 26
-36 25 -52 -1 -14 -22 -48 -27 -48 -8 0 7 12 25 27 40 30 32 67 36 95 11z
m2497 -20 c35 -43 35 -49 -2 -77 -22 -16 -31 -18 -52 -8 -14 6 -25 18 -25 26
0 9 -9 20 -21 26 -17 9 -18 14 -8 26 8 9 21 13 35 10 18 -5 21 -2 17 14 -9 33
23 24 56 -17z m-2421 -44 c1 -8 -13 -32 -32 -54 -27 -31 -37 -37 -46 -28 -10
9 -5 22 21 57 32 45 51 54 57 25z m2321 -31 c17 -23 31 -45 31 -48 0 -14 -63
-51 -77 -46 -14 6 -12 10 8 33 23 25 23 25 2 14 -28 -14 -44 6 -20 24 27 19
20 27 -8 9 -41 -27 -53 -5 -15 28 19 15 37 28 41 28 4 0 21 -19 38 -42z
m-2180 -92 c15 -32 2 -76 -23 -76 -21 0 -75 33 -81 49 -10 25 39 63 75 58 8
-1 21 -15 29 -31z m911 -6 c0 -15 -26 -23 -41 -14 -9 5 -7 10 7 15 27 11 34
10 34 -1z m1111 -11 c23 -23 21 -38 -6 -53 -11 -6 -25 -17 -33 -23 -9 -9 -19
-10 -32 -3 -25 13 -31 35 -19 70 9 24 17 30 40 30 16 0 38 -9 50 -21z m-1836
-43 c19 -8 35 -20 35 -26 0 -9 -36 -87 -45 -98 -4 -5 -74 28 -80 38 -10 16 21
23 47 10 l23 -11 -24 19 c-28 23 -21 48 10 32 12 -7 19 -7 19 -1 0 5 -9 13
-20 16 -20 6 -28 35 -10 35 6 0 26 -7 45 -14z m1625 -56 c24 -47 26 -70 5 -70
-15 0 -54 70 -55 98 0 27 31 10 50 -28z m-1530 -6 c0 -8 5 -14 10 -14 6 0 10
5 10 10 0 6 7 10 15 10 18 0 19 -16 4 -61 -18 -53 -26 -59 -60 -47 -41 14 -58
51 -36 76 10 10 17 25 17 34 0 8 3 18 7 21 9 9 33 -12 33 -29z m1459 6 c34
-18 53 -100 23 -100 -4 0 -16 16 -25 35 -25 53 -68 41 -44 -12 10 -23 4 -53
-12 -53 -13 0 -43 79 -35 93 26 45 56 57 93 37z m-1297 -47 c18 -16 24 -59 10
-79 -32 -49 -105 -32 -110 25 -6 60 56 94 100 54z m134 -81 c-7 -56 -19 -71
-50 -65 -65 13 -74 94 -11 101 17 2 34 8 39 12 18 18 28 -3 22 -48z m64 26 c0
-7 17 -8 45 -5 26 4 45 3 45 -3 0 -5 -14 -30 -32 -55 -41 -58 -64 -59 -78 -2
-6 23 -13 48 -16 55 -2 8 -2 18 1 22 7 12 35 1 35 -12z m182 -25 c18 -16 24
-59 10 -79 -16 -25 -50 -34 -76 -22 -39 17 -34 40 8 33 26 -5 35 -3 40 11 7
19 -21 50 -33 38 -3 -4 0 -9 7 -11 13 -5 17 -33 5 -33 -32 1 -53 15 -53 36 0
41 58 58 92 27z m103 -20 l24 -28 1 28 c0 22 4 28 18 25 14 -3 17 -14 17 -58
0 -48 -3 -55 -21 -58 -13 -2 -25 6 -34 23 -17 32 -30 32 -30 0 0 -16 -6 -25
-15 -25 -12 0 -15 13 -15 60 0 69 15 78 55 33z m123 -36 c3 -52 1 -57 -18 -57
-18 0 -20 6 -20 61 0 52 2 60 18 57 13 -2 18 -15 20 -61z m110 51 c22 -22 13
-30 -25 -23 -25 4 -35 3 -28 -3 6 -6 21 -12 35 -14 28 -3 38 -31 20 -53 -16
-19 -64 -19 -79 -2 -15 19 -3 28 28 21 22 -4 21 -2 -8 13 -41 22 -47 35 -26
57 19 19 66 21 83 4z m265 -2 c9 -22 -19 -42 -37 -26 -19 15 -10 40 14 40 10
0 20 -6 23 -14z"/>
<path d="M2780 4355 c0 -16 16 -20 24 -6 3 5 -1 11 -9 15 -9 3 -15 0 -15 -9z"/>
<path d="M2892 4308 c2 -15 10 -23 23 -23 30 0 27 39 -3 43 -20 3 -23 0 -20
-20z"/>
<path d="M3036 4282 c-3 -6 -1 -14 5 -17 15 -10 25 3 12 16 -7 7 -13 7 -17 1z"/>
<path d="M3268 3655 c4 -29 0 -36 -19 -44 -24 -10 -24 -10 4 -10 26 -1 27 1
27 44 0 25 -4 45 -8 45 -4 0 -6 -16 -4 -35z"/>
<path d="M3402 3670 c0 -14 2 -19 5 -12 2 6 2 18 0 25 -3 6 -5 1 -5 -13z"/>
<path d="M3570 3649 c0 -32 -3 -40 -15 -35 -8 3 -15 1 -15 -4 0 -6 9 -10 20
-10 17 0 20 7 20 45 0 25 -2 45 -5 45 -3 0 -5 -18 -5 -41z"/>
<path d="M3400 3626 c0 -8 -8 -17 -17 -19 -14 -4 -12 -5 5 -6 16 -1 22 5 22
19 0 11 -2 20 -5 20 -3 0 -5 -6 -5 -14z"/>
<path d="M1083 3600 c-44 -26 -52 -64 -23 -96 13 -13 26 -22 28 -19 3 2 -5 13
-18 23 -30 25 -22 61 20 86 39 22 83 16 136 -20 24 -17 33 -20 24 -9 -18 22
-87 54 -115 55 -11 0 -35 -9 -52 -20z"/>
<path d="M3083 3603 c9 -2 23 -2 30 0 6 3 -1 5 -18 5 -16 0 -22 -2 -12 -5z"/>
<path d="M2848 3539 c-1 -28 0 -53 5 -56 4 -2 7 21 7 51 0 70 -7 73 -12 5z"/>
<path d="M3377 3519 c-23 -13 -47 -62 -47 -94 0 -35 -12 -31 -34 10 -11 19
-23 35 -28 35 -4 0 -8 -33 -8 -74 l0 -74 41 15 c23 7 61 16 85 20 l44 6 0 83
c0 73 -2 84 -17 84 -10 0 -26 -5 -36 -11z"/>
<path d="M2204 3495 c-9 -14 -15 -27 -13 -30 3 -2 12 10 21 26 21 36 15 39 -8
4z"/>
<path d="M2429 3496 c28 -30 37 -92 21 -140 -13 -39 -47 -69 -100 -85 l-35
-11 37 4 c76 9 124 73 116 156 -5 45 -33 99 -52 100 -5 0 1 -11 13 -24z"/>
<path d="M2352 3501 c-9 -5 -2 -8 20 -9 23 -1 28 2 18 8 -18 12 -22 12 -38 1z"/>
<path d="M2248 3493 c7 -3 16 -2 19 1 4 3 -2 6 -13 5 -11 0 -14 -3 -6 -6z"/>
<path d="M2288 3493 c7 -3 16 -2 19 1 4 3 -2 6 -13 5 -11 0 -14 -3 -6 -6z"/>
<path d="M1005 3440 c22 -24 54 -44 61 -38 2 3 -15 17 -39 32 -35 24 -39 24
-22 6z"/>
<path d="M2204 3445 c-3 -8 -4 -20 -2 -27 3 -7 7 -1 10 15 6 29 1 36 -8 12z"/>
<path d="M2430 3455 c0 -5 5 -17 10 -25 5 -8 10 -10 10 -5 0 6 -5 17 -10 25
-5 8 -10 11 -10 5z"/>
<path d="M1943 3385 c0 -27 2 -38 4 -22 2 15 2 37 0 50 -2 12 -4 0 -4 -28z"/>
<path d="M1602 3353 c-2 -52 2 -66 21 -85 12 -13 15 -15 7 -5 -8 10 -18 49
-21 86 l-6 66 -1 -62z"/>
<path d="M1090 3392 c20 -13 120 -31 120 -22 0 4 -23 10 -50 14 -28 4 -58 9
-68 12 -14 5 -14 4 -2 -4z"/>
<path d="M2210 3391 c0 -6 4 -13 10 -16 6 -3 7 1 4 9 -7 18 -14 21 -14 7z"/>
<path d="M2181 3374 c0 -11 3 -14 6 -6 3 7 2 16 -1 19 -3 4 -6 -2 -5 -13z"/>
<path d="M2386 3344 c-15 -19 -39 -37 -52 -40 -13 -3 -21 -10 -18 -15 7 -11
67 29 94 64 31 40 10 32 -24 -9z"/>
<path d="M2503 3363 c-26 -10 -12 -18 35 -20 43 -1 45 0 28 13 -20 14 -41 17
-63 7z"/>
<path d="M2246 3339 c10 -11 28 -26 39 -31 14 -8 12 -2 -9 21 -33 34 -61 44
-30 10z"/>
<path d="M1798 3343 c12 -2 30 -2 40 0 9 3 -1 5 -23 4 -22 0 -30 -2 -17 -4z"/>
<path d="M2190 3342 c0 -32 98 -98 116 -79 3 3 -8 8 -25 12 -17 3 -44 22 -61
41 -16 19 -30 31 -30 26z"/>
<path d="M2680 3329 c30 -12 59 -47 60 -71 0 -10 5 -18 10 -18 6 0 10 13 10
29 0 36 -40 71 -79 70 l-26 0 25 -10z"/>
<path d="M2528 3293 c-25 -3 -38 -9 -38 -19 0 -10 -7 -13 -24 -8 -28 7 -40 -8
-32 -40 4 -16 22 -30 58 -45 32 -13 54 -18 56 -11 4 12 52 13 71 1 8 -5 10
-14 6 -22 -6 -9 -3 -10 11 -5 10 5 31 13 47 18 23 9 27 16 27 48 0 47 -27 70
-82 70 -20 0 -40 5 -43 10 -3 6 -9 9 -13 8 -4 -1 -24 -3 -44 -5z"/>
<path d="M3210 3293 c0 -5 12 -20 28 -34 l27 -24 -25 30 c-14 17 -26 32 -27
34 -2 2 -3 0 -3 -6z"/>
<path d="M3171 3197 c2 -1 13 -9 24 -17 19 -14 19 -14 6 3 -7 9 -18 17 -24 17
-6 0 -8 -1 -6 -3z"/>
<path d="M3231 3159 c13 -8 137 -13 128 -5 -2 2 -35 6 -73 9 -41 3 -63 1 -55
-4z"/>
<path d="M3178 3004 c-55 -29 -57 -73 -6 -108 36 -26 66 -20 88 17 47 77 -4
134 -82 91z m57 -13 c6 -10 -25 -31 -44 -31 -15 0 -14 27 2 33 20 9 35 8 42
-2z"/>
<path d="M858 2890 c-10 -6 -18 -18 -18 -27 0 -9 31 -62 70 -119 l70 -102 -49
-36 c-27 -20 -56 -51 -65 -70 -49 -103 16 -216 127 -218 59 -2 92 15 127 63
23 32 30 53 30 88 0 48 -17 81 -87 167 -18 23 -33 44 -33 48 0 4 -20 36 -45
72 -25 35 -45 66 -45 69 0 10 47 5 91 -11 53 -19 79 -14 79 16 0 16 -13 27
-47 42 -55 24 -178 35 -205 18z m195 -354 c46 -73 34 -127 -34 -147 -35 -11
-43 -10 -66 7 -34 26 -49 68 -35 100 10 21 86 84 101 84 3 0 18 -20 34 -44z"/>
<path d="M3420 2860 c0 -35 -14 -39 -32 -10 -15 23 -28 26 -28 7 0 -7 15 -28
33 -45 28 -27 38 -31 65 -26 17 3 39 15 48 25 19 21 13 24 -18 8 -30 -16 -47
4 -24 30 17 19 17 20 -3 30 -32 17 -41 13 -41 -19z"/>
<path d="M3635 2860 c-31 -60 -10 -110 46 -110 71 0 92 52 43 109 -34 41 -68
41 -89 1z m85 -19 c7 -14 7 -22 0 -26 -13 -8 -40 13 -40 31 0 21 28 17 40 -5z"/>
<path d="M683 2110 c-44 -28 -65 -48 -69 -68 -4 -15 -15 -43 -26 -62 -26 -51
-23 -87 23 -207 l8 -22 40 22 c49 26 52 37 11 37 -51 0 -64 65 -26 122 10 15
19 40 20 55 0 18 16 43 42 69 36 36 64 94 45 94 -3 0 -34 -18 -68 -40z"/>
<path d="M1050 3970 c0 -5 5 -10 10 -10 6 0 10 5 10 10 0 6 -4 10 -10 10 -5 0
-10 -4 -10 -10z"/>
<path d="M947 3894 c-12 -12 -8 -42 6 -47 21 -8 39 8 35 29 -3 19 -29 30 -41
18z"/>
<path d="M850 3791 c0 -6 5 -13 10 -16 6 -3 10 1 10 9 0 9 -4 16 -10 16 -5 0
-10 -4 -10 -9z"/>
<path d="M3385 1930 c-4 -6 -11 -8 -16 -5 -5 4 -9 1 -9 -4 0 -6 -9 -11 -19
-11 -13 0 -24 -13 -35 -40 -21 -53 -20 -67 4 -75 26 -8 52 -34 45 -46 -4 -5
-19 -9 -36 -9 -16 0 -29 -4 -29 -9 0 -15 42 -41 67 -41 28 0 29 -10 3 -43 -25
-31 -25 -36 3 -68 27 -31 56 -43 71 -30 6 5 22 11 36 13 19 2 26 11 30 33 5
28 6 28 12 8 8 -28 24 -30 31 -4 3 11 22 28 43 38 46 22 68 60 55 94 l-10 24
0 -25 c-1 -25 -26 -70 -39 -70 -4 0 -7 33 -7 73 0 58 -4 79 -23 110 -26 44
-23 55 12 39 14 -6 26 -22 29 -41 8 -37 27 -41 27 -6 0 14 -11 37 -25 50 -26
27 -57 31 -101 15 -21 -9 -29 -7 -43 8 -19 23 -67 36 -76 22z m82 -110 c-4
-29 -1 -40 8 -40 12 0 25 -21 25 -41 0 -5 -10 -9 -21 -9 -19 0 -18 -4 15 -40
39 -44 42 -50 24 -50 -7 0 -26 18 -41 40 -17 24 -33 37 -42 34 -7 -3 -22 -1
-32 5 -17 10 -16 11 5 17 12 3 22 10 22 15 0 5 -7 5 -17 2 -11 -4 -14 -3 -9 5
4 7 13 12 20 12 8 0 17 16 21 37 7 40 13 53 22 53 3 0 3 -18 0 -40z"/>
<path d="M3552 1580 c0 -19 2 -27 5 -17 2 9 2 25 0 35 -3 9 -5 1 -5 -18z"/>
<path d="M4230 2971 c0 -6 5 -13 10 -16 6 -3 10 1 10 9 0 9 -4 16 -10 16 -5 0
-10 -4 -10 -9z"/>
<path d="M4242 2838 c2 -15 10 -23 23 -23 30 0 27 39 -3 43 -20 3 -23 0 -20
-20z"/>
<path d="M4290 2705 c0 -8 5 -15 10 -15 6 0 10 7 10 15 0 8 -4 15 -10 15 -5 0
-10 -7 -10 -15z"/>
<path d="M1834 2290 c-12 -5 -25 -13 -29 -19 -4 -7 3 -7 22 1 16 7 75 11 143
10 63 0 121 3 130 8 20 12 -237 12 -266 0z"/>
<path d="M2120 2290 c0 -5 9 -10 21 -10 11 0 17 5 14 10 -3 6 -13 10 -21 10
-8 0 -14 -4 -14 -10z"/>
<path d="M2504 2201 c-38 -17 -84 -62 -84 -82 0 -5 15 0 33 11 17 11 35 20 38
20 3 0 2 -24 -2 -52 -17 -102 28 -230 91 -263 50 -26 84 -20 115 21 21 27 30
33 36 23 6 -11 11 -10 23 6 26 34 38 88 34 157 -2 53 0 64 10 56 19 -17 25 -3
10 25 -45 84 -201 125 -304 78z m239 -59 c25 -30 41 -91 27 -107 -18 -22 -28
-19 -66 19 -35 35 -45 81 -23 103 13 13 43 6 62 -15z"/>
<path d="M1905 2171 c-43 -20 -102 -70 -97 -83 1 -5 -5 -22 -13 -38 -9 -17
-11 -30 -6 -30 5 0 11 -8 14 -17 2 -12 10 -4 23 27 l18 45 8 -50 c11 -75 35
-128 67 -150 22 -14 27 -23 20 -32 -7 -8 -4 -18 10 -32 25 -25 94 -28 146 -7
56 24 91 116 75 201 l-7 40 -11 -27 c-32 -78 -156 15 -133 98 7 24 13 29 35
27 15 -1 43 -14 62 -28 37 -28 43 -23 18 14 -39 56 -154 77 -229 42z"/>
<path d="M2265 1811 c-8 -15 35 -35 47 -23 6 6 7 15 4 21 -9 14 -43 14 -51 2z"/>
<path d="M2737 1744 c-8 -8 1 -24 14 -24 5 0 9 7 9 15 0 15 -12 20 -23 9z"/>
<path d="M1900 1725 c0 -8 5 -15 10 -15 6 0 10 7 10 15 0 8 -4 15 -10 15 -5 0
-10 -7 -10 -15z"/>
<path d="M2535 1730 c-3 -5 1 -10 10 -10 9 0 13 5 10 10 -3 6 -8 10 -10 10 -2
0 -7 -4 -10 -10z"/>
<path d="M2105 1720 c-3 -5 1 -10 10 -10 9 0 13 5 10 10 -3 6 -8 10 -10 10 -2
0 -7 -4 -10 -10z"/>
<path d="M2267 1644 c-12 -12 4 -24 34 -24 19 0 29 5 29 15 0 15 -50 22 -63 9z"/>
<path d="M2270 1591 c0 -10 24 -21 46 -21 8 0 14 7 14 15 0 10 -10 15 -30 15
-16 0 -30 -4 -30 -9z"/>
<path d="M320 2100 c0 -5 5 -10 10 -10 6 0 10 5 10 10 0 6 -4 10 -10 10 -5 0
-10 -4 -10 -10z"/>
<path d="M347 1983 c-12 -11 -7 -33 8 -39 20 -8 45 13 38 32 -5 14 -34 19 -46
7z"/>
<path d="M380 1834 c0 -8 5 -12 10 -9 6 3 10 10 10 16 0 5 -4 9 -10 9 -5 0
-10 -7 -10 -16z"/>
<path d="M1481 1074 c0 -11 3 -14 6 -6 3 7 2 16 -1 19 -3 4 -6 -2 -5 -13z"/>
<path d="M500 1602 c0 -26 -15 -29 -29 -4 -10 16 -10 16 -11 -1 0 -25 28 -33
48 -13 13 12 14 19 4 28 -9 9 -12 7 -12 -10z"/>
<path d="M3755 1019 c-10 -15 3 -25 16 -12 7 7 7 13 1 17 -6 3 -14 1 -17 -5z"/>
<path d="M3647 954 c-12 -12 -8 -42 6 -47 21 -8 39 8 35 29 -3 19 -29 30 -41
18z"/>
<path d="M3560 840 c-8 -5 -11 -12 -7 -16 4 -4 13 -2 19 4 15 15 7 24 -12 12z"/>
<path d="M1575 530 c3 -5 10 -10 16 -10 5 0 9 5 9 10 0 6 -7 10 -16 10 -8 0
-12 -4 -9 -10z"/>
<path d="M1696 511 c-10 -16 6 -42 23 -39 9 2 17 13 19 26 3 16 -2 22 -17 22
-11 0 -22 -4 -25 -9z"/>
<path d="M1830 450 c0 -5 7 -10 15 -10 8 0 15 5 15 10 0 6 -7 10 -15 10 -8 0
-15 -4 -15 -10z"/>
<path d="M1970 439 c0 -5 5 -7 10 -4 6 3 10 8 10 11 0 2 -4 4 -10 4 -5 0 -10
-5 -10 -11z"/>
</g>
</svg>
